<svg xmlns="http://www.w3.org/2000/svg" version="1.1" xmlns:xlink="http://www.w3.org/1999/xlink" xmlns:svgjs="http://svgjs.com/svgjs" width="512" height="512" x="0" y="0" viewBox="0 0 64 64" style="enable-background:new 0 0 512 512" xml:space="preserve" class=""><g><g id="Shield"><path d="M11,15.625V38.416A16.0816,16.0816,0,0,0,20.0762,52.84L32,58.5625,43.9238,52.84A16.0816,16.0816,0,0,0,53,38.416V15.625a41.0356,41.0356,0,0,1-21-9.04A41.0276,41.0276,0,0,1,11,15.625ZM50,32A18,18,0,1,1,32,14,18.0209,18.0209,0,0,1,50,32Z" fill="#000000" data-original="#000000" class=""></path><path d="M16,32A16,16,0,1,0,32,16,16.0183,16.0183,0,0,0,16,32Zm30,0A14,14,0,1,1,32,18,14.0158,14.0158,0,0,1,46,32Z" fill="#000000" data-original="#000000" class=""></path><path d="M20,32A12,12,0,1,0,32,20,12.0134,12.0134,0,0,0,20,32Zm17.707-3.707a.9994.9994,0,0,1,0,1.414l-6,6a.9995.9995,0,0,1-1.414,0l-3-3a1,1,0,0,1,1.414-1.414L31,33.5859l5.293-5.2929A.9994.9994,0,0,1,37.707,28.293Z" fill="#000000" data-original="#000000" class=""></path><path d="M57.0586,11.002C40.7451,10.042,32.8574.4707,32.78.374a1.0026,1.0026,0,0,0-.7793-.373H31.999a1,1,0,0,0-.78.374c-.0771.0967-7.9116,9.6641-24.2778,10.627A1,1,0,0,0,6,12V38.415A21.107,21.107,0,0,0,17.9126,57.3467l13.6548,6.5547a.9983.9983,0,0,0,.8652,0l13.6543-6.5547A21.1066,21.1066,0,0,0,58,38.415V12A1,1,0,0,0,57.0586,11.002ZM55,38.416A18.09,18.09,0,0,1,44.7891,54.6426L32.4326,60.5732a.9974.9974,0,0,1-.8652,0L19.2109,54.6426A18.09,18.09,0,0,1,9,38.416V14.7451a1,1,0,0,1,.8823-.9931A38.8773,38.8773,0,0,0,31.333,4.5146a1,1,0,0,1,1.334,0A38.8829,38.8829,0,0,0,54.1182,13.752,1,1,0,0,1,55,14.7451Z" fill="#000000" data-original="#000000" class=""></path></g></g></svg>