<svg xmlns="http://www.w3.org/2000/svg" version="1.1" xmlns:xlink="http://www.w3.org/1999/xlink" xmlns:svgjs="http://svgjs.com/svgjs" width="512" height="512" x="0" y="0" viewBox="0 0 64 64" style="enable-background:new 0 0 512 512" xml:space="preserve" class=""><g><path d="m18.269 25.982 6.427 11.132c.378.654.606 1.372.691 2.107.842-1.444 2.269-2.415 3.922-2.667l1.336-.204c-.654-.458-1.218-1.04-1.62-1.735l-6.427-11.132c-1.534.663-2.987 1.502-4.329 2.499z" fill="#ffffff" data-original="#000000" class=""></path><path d="m19.17 5.55-14.72 8.5-.75-1.3c-.2-.35-.25-.75-.15-1.14.11-.38.35-.71.7-.91l12.12-7c.24-.13.49-.2.75-.2.13 0 .26.02.39.05.39.11.71.35.91.7z" fill="#ffffff" data-original="#000000" class=""></path><path d="m21.17 9.01-14.72 8.5-1.5-2.59 14.72-8.51z" fill="#ffffff" data-original="#000000" class=""></path><path d="m32.003 35.978c.873-.379 1.616-1.016 2.105-1.863l.74-1.282c-.205-.067-.348-.253-.348-.471v-2.862h-5v2.861c0 .218-.143.404-.348.471l.74 1.282c.48.83 1.228 1.479 2.111 1.864z" fill="#ffffff" data-original="#000000" class=""></path><path d="m45.731 25.982c-1.342-.997-2.795-1.836-4.33-2.5l-6.427 11.132c-.84 1.455-2.274 2.434-3.935 2.687l-1.579.241c-1.359.207-2.532 1.008-3.22 2.198l-.549.95 2.642 1.525c1.341-1.816 3.852-2.396 5.854-1.239 1.041.601 1.786 1.571 2.097 2.731.267.997.167 2.026-.242 2.958l2.64 1.524.548-.95c.688-1.19.795-2.606.294-3.888l-.581-1.487c-.611-1.564-.48-3.297.36-4.751z" fill="#ffffff" data-original="#000000" class=""></path><path d="m25.193 41.556-2.5 4.331 1.923 1.11c.105.061.185.157.224.272.585 1.734 1.774 3.19 3.349 4.1 1.574.908 3.429 1.211 5.224.85.12-.025.243-.004.349.058l1.923 1.11 2.5-4.331-2.628-1.517c-.867 1.178-2.228 1.834-3.626 1.834-.763 0-1.535-.194-2.242-.603-2.001-1.155-2.757-3.62-1.854-5.69z" fill="#ffffff" data-original="#000000" class=""></path><path d="m30.187 47.905c1.669.962 3.815.389 4.781-1.282.468-.81.592-1.753.35-2.655-.242-.903-.821-1.658-1.631-2.126-1.673-.966-3.817-.39-4.781 1.281-.965 1.672-.39 3.816 1.281 4.782z" fill="#ffffff" data-original="#000000" class=""></path><path d="m17.06 17.393c-.254 0-.512.064-.747.201-.716.413-.962 1.333-.549 2.049s1.333.965 2.049.549c.716-.413.962-1.333.549-2.049-.279-.481-.784-.75-1.302-.75z" fill="#ffffff" data-original="#000000" class=""></path><path d="m46.187 20.192c.717.413 1.635.165 2.049-.55.414-.716.167-1.636-.549-2.05-.717-.413-1.636-.166-2.049.55s-.166 1.636.549 2.05z" fill="#ffffff" data-original="#000000" class=""></path><path d="m35.954 20.917c5.814.814 11.109 3.872 14.723 8.5l6.372-11.038-14.723-8.5zm8.818-3.274c.689-1.193 2.221-1.604 3.415-.916 1.194.69 1.604 2.223.915 3.416-.462.801-1.305 1.25-2.169 1.25-.424 0-.853-.108-1.246-.334-1.193-.691-1.604-2.223-.915-3.416z" fill="#ffffff" data-original="#000000" class=""></path><path d="m21.674 9.879-14.723 8.5 6.372 11.038c3.614-4.628 8.909-7.686 14.723-8.5zm-3.362 11.179c-.393.227-.822.335-1.246.335-.865 0-1.707-.449-2.169-1.25-.689-1.193-.279-2.726.915-3.415 1.194-.688 2.725-.278 3.415.915s.279 2.725-.915 3.415z" fill="#ffffff" data-original="#000000" class=""></path><path d="m44.152 42.115c-.307-1.294-.818-2.527-1.521-3.666-.122-.197-.092-.452.072-.616l2.025-2.025-2.228-2.229-2.33 4.035c-.688 1.19-.795 2.606-.294 3.888l.581 1.487c.611 1.564.48 3.297-.36 4.751l-.798 1.383-3 5.196c-.066.115-.176.198-.304.233-.042.011-.086.017-.129.017-.087 0-.173-.022-.25-.067l-2.195-1.268c-1.974.352-4.002-.002-5.733-1-1.73-.998-3.05-2.579-3.733-4.465l-2.195-1.268c-.239-.138-.321-.443-.183-.683l2.611-4.522c.414-1.228.286-2.569-.357-3.683l-2.33-4.035-2.228 2.229 2.025 2.025c.164.164.194.419.072.616-.703 1.139-1.214 2.372-1.521 3.666-.053.226-.254.385-.486.385h-2.863v5h2.862c.232 0 .433.159.486.385.307 1.294.818 2.527 1.521 3.666.122.197.092.452-.072.616l-2.025 2.025 3.536 3.535 2.025-2.024c.164-.165.419-.194.616-.072 1.139.703 2.372 1.215 3.666 1.521.226.053.385.255.385.486v2.863h5v-2.861c0-.231.159-.434.385-.486 1.294-.307 2.527-.818 3.666-1.521.196-.122.451-.093.616.072l2.025 2.024 3.536-3.535-2.025-2.025c-.164-.164-.194-.419-.072-.616.703-1.139 1.214-2.372 1.521-3.666.053-.226.254-.385.486-.385h2.862v-5h-2.862c-.232-.001-.433-.16-.486-.386z" fill="#ffffff" data-original="#000000" class=""></path><path d="m44.33 6.42 14.72 8.5-1.5 2.59-14.72-8.5z" fill="#ffffff" data-original="#000000" class=""></path><path d="m60.3 12.75-.75 1.3-14.72-8.5.75-1.3c.2-.35.52-.59.91-.7.39-.1.79-.05 1.14.15l12.12 7c.35.2.59.53.7.91.1.39.05.79-.15 1.14z" fill="#ffffff" data-original="#000000" class=""></path></g></svg>